<svg width="144" height="144" viewBox="0 0 144 144" fill="none" xmlns="http://www.w3.org/2000/svg">
  <g clip-path="url(#clip0_15_90)">
    <rect width="144" height="144" rx="24" fill="#191F28" />
    <g filter="url(#filter0_d_15_90)">
      <rect x="14" y="50" width="116" height="72" rx="12" fill="url(#paint0_linear_15_90)" />
    </g>
    <g filter="url(#filter1_b_15_90)">
      <path
        fill-rule="evenodd"
        clip-rule="evenodd"
        d="M54.7613 66H0V150H144V66H89.2387C86.219 72.4961 79.6355 77 72 77C64.3645 77 57.781 72.4961 54.7613 66Z"
        fill="#191F28"
        fill-opacity="0.8"
      />
    </g>
    <path
      fill-rule="evenodd"
      clip-rule="evenodd"
      d="M54.9363 16.9375C56.1923 18.1906 56.1958 20.2258 54.9442 21.4832C50.6006 25.8469 47.9211 31.8571 47.9211 38.5C47.9211 45.1429 50.6006 51.1531 54.9442 55.5168C56.1958 56.7742 56.1923 58.8094 54.9363 60.0625C53.6804 61.3156 51.6476 61.3121 50.396 60.0546C44.9019 54.5352 41.5 46.9123 41.5 38.5C41.5 30.0877 44.9019 22.4648 50.396 16.9454C51.6476 15.6879 53.6804 15.6844 54.9363 16.9375ZM89.0637 16.9375C90.3196 15.6844 92.3524 15.6879 93.604 16.9454C99.0981 22.4648 102.5 30.0877 102.5 38.5C102.5 46.9123 99.0981 54.5352 93.604 60.0546C92.3524 61.3121 90.3196 61.3156 89.0637 60.0625C87.8077 58.8094 87.8042 56.7742 89.0558 55.5168C93.3994 51.1531 96.0789 45.1429 96.0789 38.5C96.0789 31.8571 93.3994 25.8469 89.0558 21.4832C87.8042 20.2258 87.8077 18.1906 89.0637 16.9375ZM76.8158 38.4998C76.8158 41.1626 74.6597 43.3212 72 43.3212C69.3403 43.3212 67.1842 41.1626 67.1842 38.4998C67.1842 35.837 69.3403 33.6783 72 33.6783C74.6597 33.6783 76.8158 35.837 76.8158 38.4998ZM64.0664 30.2965C65.3036 29.0248 65.2768 26.9898 64.0066 25.7512C62.7364 24.5126 60.7038 24.5394 59.4667 25.811C56.2949 29.0712 54.3421 33.5619 54.3421 38.5002C54.3421 43.4385 56.2949 47.9292 59.4667 51.1894C60.7038 52.461 62.7364 52.4878 64.0066 51.2492C65.2768 50.0105 65.3036 47.9755 64.0664 46.7039C62.0299 44.6107 60.7632 41.7168 60.7632 38.5002C60.7632 35.2836 62.0299 32.3897 64.0664 30.2965ZM84.5334 25.811C83.2962 24.5394 81.2636 24.5126 79.9934 25.7512C78.7232 26.9898 78.6965 29.0248 79.9336 30.2965C81.9701 32.3897 83.2368 35.2836 83.2368 38.5002C83.2368 41.7168 81.9701 44.6107 79.9336 46.7039C78.6965 47.9755 78.7232 50.0105 79.9934 51.2492C81.2636 52.4878 83.2962 52.461 84.5334 51.1894C87.7051 47.9292 89.6579 43.4385 89.6579 38.5002C89.6579 33.5619 87.7051 29.0712 84.5334 25.811Z"
      fill="url(#paint1_linear_15_90)"
      fill-opacity="0.8"
    />
  </g>
  <defs>
    <filter
      id="filter0_d_15_90"
      x="12"
      y="50"
      width="124"
      height="80"
      filterUnits="userSpaceOnUse"
      color-interpolation-filters="sRGB"
    >
      <feFlood flood-opacity="0" result="BackgroundImageFix" />
      <feColorMatrix
        in="SourceAlpha"
        type="matrix"
        values="0 0 0 0 0 0 0 0 0 0 0 0 0 0 0 0 0 0 127 0"
        result="hardAlpha"
      />
      <feOffset dx="2" dy="4" />
      <feGaussianBlur stdDeviation="2" />
      <feComposite in2="hardAlpha" operator="out" />
      <feColorMatrix type="matrix" values="0 0 0 0 0 0 0 0 0 0 0 0 0 0 0 0 0 0 0.5 0" />
      <feBlend mode="normal" in2="BackgroundImageFix" result="effect1_dropShadow_15_90" />
      <feBlend mode="normal" in="SourceGraphic" in2="effect1_dropShadow_15_90" result="shape" />
    </filter>
    <filter
      id="filter1_b_15_90"
      x="-24"
      y="42"
      width="192"
      height="132"
      filterUnits="userSpaceOnUse"
      color-interpolation-filters="sRGB"
    >
      <feFlood flood-opacity="0" result="BackgroundImageFix" />
      <feGaussianBlur in="BackgroundImageFix" stdDeviation="12" />
      <feComposite in2="SourceAlpha" operator="in" result="effect1_backgroundBlur_15_90" />
      <feBlend mode="normal" in="SourceGraphic" in2="effect1_backgroundBlur_15_90" result="shape" />
    </filter>
    <linearGradient
      id="paint0_linear_15_90"
      x1="14"
      y1="50"
      x2="130"
      y2="122"
      gradientUnits="userSpaceOnUse"
    >
      <stop stop-color="#94F5B8" />
      <stop offset="1" stop-color="#40CF9C" />
    </linearGradient>
    <linearGradient
      id="paint1_linear_15_90"
      x1="72"
      y1="16"
      x2="72"
      y2="61"
      gradientUnits="userSpaceOnUse"
    >
      <stop stop-color="white" stop-opacity="0.5" />
      <stop offset="1" stop-color="white" stop-opacity="0" />
    </linearGradient>
    <clipPath id="clip0_15_90">
      <rect width="144" height="144" rx="24" fill="white" />
    </clipPath>
  </defs>
</svg>
