<svg width="10" height="10" viewBox="0 0 10 10" fill="none" xmlns="http://www.w3.org/2000/svg">
<path fill-rule="evenodd" clip-rule="evenodd" d="M2.5 3.5V8H6V3.5H2.5ZM6.86622 3C6.9513 3.14709 7 3.31786 7 3.5V6.5H7.5V2H4V2.5H6C6.18214 2.5 6.35291 2.5487 6.5 2.63378C6.65181 2.7216 6.7784 2.84819 6.86622 3ZM3 2V2.5H2.5C1.94772 2.5 1.5 2.94772 1.5 3.5V8C1.5 8.55228 1.94772 9 2.5 9H6C6.55228 9 7 8.55228 7 8V7.5H7.5C8.05228 7.5 8.5 7.05228 8.5 6.5V2C8.5 1.44772 8.05228 1 7.5 1H4C3.44772 1 3 1.44772 3 2Z" fill="#6D7684"/>
</svg>
